# xmcd
#
# Track frame offsets:
#	150
#	20519
#	36743
#	54072
#	70560
#	86375
#	106437
#	128325
#	151830
#	168037
#	177288
#	196046
#
# Disc length: 2835 seconds
#
# Revision: 0
# Processed by: cddbd v1.4PL0 Copyright (c) Steve Scherf et al.
# Submitted via: dBpowerAMP V4.0
#
DISCID=840b110c
DTITLE=Johnny Dickinson - Castles and Old Kings
DYEAR=2002
DGENRE=Acoustic
TTITLE0=Beach Road
TTITLE1=If I Ever Go
TTITLE2=Searching For Lambs
TTITLE3=The Strayaway Child
TTITLE4=Simple Life
TTITLE5=Castle and Old Kings
TTITLE6=Black Jack Davy
TTITLE7=Something In The Breeze
TTITLE8=She Moved Through The Fair
TTITLE9=Little Mischief
TTITLE10=Jock O Hazeldene
TTITLE11=Swimming Underwater
EXTD=
EXTT0=
EXTT1=
EXTT2=
EXTT3=
EXTT4=
EXTT5=
EXTT6=
EXTT7=
EXTT8=
EXTT9=
EXTT10=
EXTT11=
PLAYORDER=
